<mxfile host="app.diagrams.net" modified="2020-11-19T20:55:39.749Z" agent="5.0 (Windows NT 10.0; Win64; x64) AppleWebKit/537.36 (KHTML, like Gecko) Chrome/87.0.4280.66 Safari/537.36" etag="UjM7Jtg4efVxRZSoVyt1" version="13.10.0" type="github">
  <diagram name="Page-1" id="1622d65d-c77d-c4b6-e0e7-3c11208c8684">
    <mxGraphModel dx="2062" dy="1122" grid="1" gridSize="10" guides="1" tooltips="1" connect="1" arrows="1" fold="1" page="1" pageScale="1.5" pageWidth="1169" pageHeight="826" background="#ffffff" math="0" shadow="0">
      <root>
        <mxCell id="0" style=";html=1;" />
        <mxCell id="1" style=";html=1;" parent="0" />
        <mxCell id="65VW05WF9zWUem-Ox47l-41" value="&lt;span style=&quot;font-size: 16px&quot;&gt;&lt;b&gt;Maintenance&lt;/b&gt;&lt;/span&gt;" style="rounded=0;whiteSpace=wrap;shadow=0;strokeColor=none;strokeWidth=6;fontSize=30;fontColor=#FFFFFF;align=left;html=1;spacingLeft=5;fillColor=#666666;" parent="1" vertex="1">
          <mxGeometry x="595" y="900" width="195" height="50" as="geometry" />
        </mxCell>
        <mxCell id="65VW05WF9zWUem-Ox47l-20" value="" style="html=1;shadow=0;dashed=0;align=center;verticalAlign=middle;shape=mxgraph.arrows2.uTurnArrow;dy=22;arrowHead=70;dx2=35;strokeColor=#ffffff;fontSize=12;fontColor=#3333FF;flipH=1;flipV=1;strokeWidth=4;fillColor=#990000;" parent="1" vertex="1">
          <mxGeometry x="630" y="820" width="230" height="140" as="geometry" />
        </mxCell>
        <mxCell id="65VW05WF9zWUem-Ox47l-19" value="" style="html=1;shadow=0;dashed=0;align=center;verticalAlign=middle;shape=mxgraph.arrows2.uTurnArrow;dy=22;arrowHead=70;dx2=35;strokeColor=#ffffff;fontSize=12;fontColor=#3333FF;flipV=1;strokeWidth=4;labelBackgroundColor=none;fillColor=#CC6600;" parent="1" vertex="1">
          <mxGeometry x="575" y="740" width="230" height="140" as="geometry" />
        </mxCell>
        <mxCell id="65VW05WF9zWUem-Ox47l-17" value="" style="html=1;shadow=0;dashed=0;align=center;verticalAlign=middle;shape=mxgraph.arrows2.uTurnArrow;dy=22;arrowHead=70;dx2=35;strokeColor=#ffffff;fontSize=12;fontColor=#3333FF;flipH=1;flipV=1;strokeWidth=4;fillColor=#336600;" parent="1" vertex="1">
          <mxGeometry x="630" y="660" width="230" height="140" as="geometry" />
        </mxCell>
        <mxCell id="65VW05WF9zWUem-Ox47l-15" value="" style="html=1;shadow=0;dashed=0;align=center;verticalAlign=middle;shape=mxgraph.arrows2.uTurnArrow;dy=22;arrowHead=70;dx2=35;strokeColor=#ffffff;fontSize=12;fontColor=#3333FF;flipV=1;strokeWidth=4;labelBackgroundColor=none;fillColor=#3D007A;" parent="1" vertex="1">
          <mxGeometry x="570" y="580" width="230" height="140" as="geometry" />
        </mxCell>
        <mxCell id="65VW05WF9zWUem-Ox47l-1" value="" style="html=1;shadow=0;dashed=0;align=center;verticalAlign=middle;shape=mxgraph.arrows2.uTurnArrow;dy=22;arrowHead=70;dx2=35;strokeColor=#ffffff;fillColor=#12AAB5;fontSize=12;fontColor=#3333FF;flipH=1;flipV=1;strokeWidth=4;" parent="1" vertex="1">
          <mxGeometry x="630" y="496" width="230" height="140" as="geometry" />
        </mxCell>
        <mxCell id="65VW05WF9zWUem-Ox47l-2" value="" style="html=1;shadow=0;dashed=0;align=center;verticalAlign=middle;shape=mxgraph.arrows2.uTurnArrow;dy=22;arrowHead=70;dx2=35;strokeColor=#ffffff;fillColor=#23445D;fontSize=12;fontColor=#3333FF;flipV=1;strokeWidth=4;" parent="1" vertex="1">
          <mxGeometry x="560" y="417" width="230" height="140" as="geometry" />
        </mxCell>
        <mxCell id="65VW05WF9zWUem-Ox47l-3" value="" style="html=1;shadow=0;dashed=0;align=center;verticalAlign=middle;shape=mxgraph.arrows2.uTurnArrow;dy=22;arrowHead=70;dx2=35;strokeColor=#ffffff;fillColor=#AE4132;fontSize=12;fontColor=#3333FF;flipH=1;flipV=1;strokeWidth=4;" parent="1" vertex="1">
          <mxGeometry x="630" y="338" width="230" height="140" as="geometry" />
        </mxCell>
        <mxCell id="65VW05WF9zWUem-Ox47l-4" value="" style="html=1;shadow=0;dashed=0;align=center;verticalAlign=middle;shape=mxgraph.arrows2.uTurnArrow;dy=22;arrowHead=70;dx2=35;strokeColor=#ffffff;fillColor=#F2931E;fontSize=12;fontColor=#3333FF;flipV=1;strokeWidth=4;" parent="1" vertex="1">
          <mxGeometry x="560" y="259" width="230" height="140" as="geometry" />
        </mxCell>
        <mxCell id="65VW05WF9zWUem-Ox47l-5" value="" style="html=1;shadow=0;dashed=0;align=center;verticalAlign=middle;shape=mxgraph.arrows2.uTurnArrow;dy=22;arrowHead=70;dx2=35;strokeColor=#ffffff;fillColor=#10739E;fontSize=12;fontColor=#3333FF;flipH=1;flipV=1;strokeWidth=4;" parent="1" vertex="1">
          <mxGeometry x="560" y="180" width="300" height="140" as="geometry" />
        </mxCell>
        <mxCell id="65VW05WF9zWUem-Ox47l-6" value="&lt;b&gt;&lt;font style=&quot;font-size: 16px&quot;&gt;Data Prep&lt;/font&gt;&lt;/b&gt;" style="rounded=0;whiteSpace=wrap;shadow=0;strokeColor=none;strokeWidth=6;fillColor=none;fontSize=30;fontColor=#FFFFFF;align=center;html=1;spacingLeft=5;" parent="1" vertex="1">
          <mxGeometry x="560" y="180" width="230" height="40" as="geometry" />
        </mxCell>
        <mxCell id="65VW05WF9zWUem-Ox47l-11" value="&lt;b style=&quot;font-size: 16px;&quot;&gt;Data Model&lt;/b&gt;" style="rounded=0;whiteSpace=wrap;shadow=0;strokeColor=none;strokeWidth=6;fillColor=none;fontSize=16;fontColor=#FFFFFF;align=center;html=1;spacingLeft=5;" parent="1" vertex="1">
          <mxGeometry x="570" y="259" width="230" height="40" as="geometry" />
        </mxCell>
        <mxCell id="65VW05WF9zWUem-Ox47l-12" value="&lt;b style=&quot;font-size: 16px&quot;&gt;Deploy - Delivery/Test&lt;/b&gt;" style="rounded=0;whiteSpace=wrap;shadow=0;strokeColor=none;strokeWidth=6;fillColor=none;fontSize=30;fontColor=#FFFFFF;align=left;html=1;spacingLeft=5;" parent="1" vertex="1">
          <mxGeometry x="660" y="338" width="190" height="40" as="geometry" />
        </mxCell>
        <mxCell id="65VW05WF9zWUem-Ox47l-13" value="&lt;span style=&quot;font-size: 16px&quot;&gt;&lt;b&gt;Layerfile Presentation&lt;/b&gt;&lt;/span&gt;&lt;span style=&quot;color: rgba(0 , 0 , 0 , 0) ; font-family: monospace ; font-size: 0px&quot;&gt;%3CmxGraphModel%3E%3Croot%3E%3CmxCell%20id%3D%220%22%2F%3E%3CmxCell%20id%3D%221%22%20parent%3D%220%22%2F%3E%3CmxCell%20id%3D%222%22%20value%3D%22%26lt%3Bb%20style%3D%26quot%3Bfont-size%3A%2016px%26quot%3B%26gt%3BDeploy%20-%20Delivery%2FTest%26lt%3B%2Fb%26gt%3B%22%20style%3D%22rounded%3D0%3BwhiteSpace%3Dwrap%3Bshadow%3D0%3BstrokeColor%3Dnone%3BstrokeWidth%3D6%3BfillColor%3Dnone%3BfontSize%3D30%3BfontColor%3D%23FFFFFF%3Balign%3Dleft%3Bhtml%3D1%3BspacingLeft%3D5%3B%22%20vertex%3D%221%22%20parent%3D%221%22%3E%3CmxGeometry%20x%3D%22660%22%20y%3D%22338%22%20width%3D%22190%22%20height%3D%2240%22%20as%3D%22geometry%22%2F%3E%3C%2FmxCell%3E%3C%2Froot%3E%3C%2FmxGraphModel%3E&lt;/span&gt;" style="rounded=0;whiteSpace=wrap;shadow=0;strokeColor=none;strokeWidth=6;fillColor=none;fontSize=30;fontColor=#FFFFFF;align=left;html=1;spacingLeft=5;" parent="1" vertex="1">
          <mxGeometry x="580" y="417" width="190" height="40" as="geometry" />
        </mxCell>
        <mxCell id="65VW05WF9zWUem-Ox47l-14" value="&lt;span style=&quot;font-size: 16px&quot;&gt;&lt;b&gt;Data Distribution&lt;/b&gt;&lt;/span&gt;" style="rounded=0;whiteSpace=wrap;shadow=0;strokeColor=none;strokeWidth=6;fillColor=none;fontSize=30;fontColor=#FFFFFF;align=left;html=1;spacingLeft=5;" parent="1" vertex="1">
          <mxGeometry x="660" y="496" width="190" height="40" as="geometry" />
        </mxCell>
        <mxCell id="65VW05WF9zWUem-Ox47l-16" value="&lt;span style=&quot;font-size: 16px&quot;&gt;&lt;b&gt;Data Replication&lt;/b&gt;&lt;/span&gt;" style="rounded=0;whiteSpace=wrap;shadow=0;strokeColor=none;strokeWidth=6;fillColor=none;fontSize=30;fontColor=#FFFFFF;align=left;html=1;spacingLeft=5;" parent="1" vertex="1">
          <mxGeometry x="615" y="579.5" width="190" height="40" as="geometry" />
        </mxCell>
        <mxCell id="65VW05WF9zWUem-Ox47l-18" value="&lt;span style=&quot;font-size: 16px&quot;&gt;&lt;b&gt;Deploy - Production&lt;/b&gt;&lt;/span&gt;" style="rounded=0;whiteSpace=wrap;shadow=0;strokeColor=none;strokeWidth=6;fillColor=none;fontSize=30;fontColor=#FFFFFF;align=left;html=1;spacingLeft=5;" parent="1" vertex="1">
          <mxGeometry x="670" y="660" width="190" height="40" as="geometry" />
        </mxCell>
        <mxCell id="65VW05WF9zWUem-Ox47l-21" value="&lt;span style=&quot;font-size: 16px&quot;&gt;&lt;b&gt;Final Review&lt;/b&gt;&lt;/span&gt;" style="rounded=0;whiteSpace=wrap;shadow=0;strokeColor=none;strokeWidth=6;fillColor=none;fontSize=30;fontColor=#FFFFFF;align=left;html=1;spacingLeft=5;" parent="1" vertex="1">
          <mxGeometry x="600" y="740" width="190" height="40" as="geometry" />
        </mxCell>
        <mxCell id="65VW05WF9zWUem-Ox47l-22" value="&lt;span style=&quot;font-size: 16px&quot;&gt;&lt;b&gt;Communication&lt;/b&gt;&lt;/span&gt;" style="rounded=0;whiteSpace=wrap;shadow=0;strokeColor=none;strokeWidth=6;fillColor=none;fontSize=30;fontColor=#FFFFFF;align=left;html=1;spacingLeft=5;" parent="1" vertex="1">
          <mxGeometry x="680" y="820" width="160" height="40" as="geometry" />
        </mxCell>
      </root>
    </mxGraphModel>
  </diagram>
</mxfile>
